<?xml version="1.0" standalone="no"?>
<!DOCTYPE svg PUBLIC "-//W3C//DTD SVG 20010904//EN"
 "http://www.w3.org/TR/2001/REC-SVG-20010904/DTD/svg10.dtd">
<svg version="1.0" xmlns="http://www.w3.org/2000/svg"
 width="1198.000000pt" height="2063.000000pt" viewBox="0 0 1198.000000 2063.000000"
 preserveAspectRatio="xMidYMid meet">
<metadata>
Created by potrace 1.16, written by Peter Selinger 2001-2019
</metadata>
<g transform="translate(0.000000,2063.000000) scale(0.100000,-0.100000)"
fill="#ffffff" stroke="none">
<path d="M5520 20363 c0 -5 4 -46 10 -93 5 -47 14 -193 20 -325 6 -132 15
-294 21 -360 16 -192 51 -371 69 -360 5 3 17 40 27 83 15 63 18 118 17 312 0
255 -16 395 -70 633 l-27 117 -34 0 c-18 0 -33 -3 -33 -7z"/>
<path d="M7546 20131 c-6 -41 -32 -72 -119 -144 l-46 -37 26 -46 c23 -41 26
-58 26 -133 0 -47 -6 -129 -13 -181 -21 -152 -19 -287 5 -335 29 -58 75 -85
144 -85 60 0 131 16 131 29 0 24 -46 61 -100 81 -79 30 -102 58 -95 119 26
243 45 335 85 429 l22 50 64 -24 c74 -28 126 -31 148 -8 33 32 22 44 -50 59
-53 10 -101 63 -152 164 -26 52 -52 96 -58 98 -6 2 -14 -13 -18 -36z"/>
<path d="M8090 20149 c-7 -12 -13 -45 -14 -73 l-1 -51 46 -3 c58 -4 89 19 98
74 6 38 5 39 -29 52 -66 26 -87 26 -100 1z"/>
<path d="M6098 20142 c-37 -10 -70 -21 -74 -24 -20 -21 49 -56 175 -88 47 -12
97 -28 113 -36 33 -17 68 -69 68 -101 0 -22 -4 -23 -72 -23 -219 0 -357 -115
-358 -295 0 -62 4 -78 33 -125 38 -65 110 -113 196 -131 62 -13 247 -7 263 9
12 12 34 152 43 272 7 104 -6 256 -29 335 -55 182 -181 255 -358 207z m260
-407 c10 -30 12 -76 6 -184 l-7 -144 -86 6 c-89 5 -137 20 -184 57 -31 25 -67
89 -67 121 0 37 31 88 68 111 37 23 215 77 242 74 8 -1 21 -19 28 -41z"/>
<path d="M6945 20093 c-116 -26 -184 -95 -201 -202 -15 -91 19 -149 130 -223
142 -95 180 -168 122 -235 l-24 -28 -123 3 c-103 2 -125 0 -140 -14 -31 -28
-22 -44 39 -72 184 -84 391 30 392 216 0 86 -27 122 -157 206 -81 53 -115 99
-115 153 0 28 7 43 27 60 24 21 36 23 134 23 92 0 110 3 124 18 26 29 21 38
-40 65 -59 25 -132 39 -168 30z"/>
<path d="M4788 19988 c-56 -12 -53 1 -38 -188 5 -69 14 -278 19 -465 11 -367
18 -416 67 -475 67 -79 107 8 69 150 -8 30 -15 76 -15 101 l0 46 75 6 c146 11
267 92 330 221 82 168 62 362 -50 494 -23 26 -63 55 -111 79 -72 35 -81 37
-187 39 -62 2 -133 -2 -159 -8z m273 -125 c100 -45 160 -138 167 -262 10 -185
-112 -321 -288 -321 l-46 0 -17 213 c-18 223 -22 378 -9 391 13 14 146 0 193
-21z"/>
<path d="M9115 19916 c-8 -19 -15 -54 -15 -76 0 -33 3 -40 19 -40 10 0 32 -7
47 -15 33 -17 68 -20 59 -5 -3 5 4 28 15 50 29 57 23 79 -25 97 -79 29 -84 29
-100 -11z"/>
<path d="M4222 19889 c-175 -29 -285 -181 -286 -394 -1 -249 132 -418 329
-418 199 -1 335 169 335 418 0 271 -154 432 -378 394z m173 -130 c141 -156
118 -492 -39 -569 -55 -26 -103 -25 -157 3 -146 77 -203 340 -108 494 43 69
125 112 215 113 48 0 54 -3 89 -41z"/>
<path d="M8045 19863 c-7 -33 -55 -223 -97 -378 -48 -180 -48 -382 0 -373 23
4 68 98 92 193 16 66 100 529 100 555 0 4 -12 10 -27 12 -16 3 -36 8 -45 12
-13 6 -18 2 -23 -21z"/>
<path d="M8482 19811 c-96 -33 -176 -139 -203 -269 -13 -63 -7 -225 10 -282
19 -61 74 -143 119 -175 41 -28 50 -30 130 -30 55 0 96 5 111 14 l25 14 -24
19 c-12 10 -64 43 -115 73 -100 58 -167 124 -186 182 -6 19 -9 63 -7 97 9 151
103 222 356 269 61 12 112 24 112 28 0 10 -109 57 -160 68 -65 15 -108 13
-168 -8z"/>
<path d="M3531 19694 c-70 -66 -80 -73 -86 -55 -16 51 -106 81 -135 46 -11
-13 -6 -38 28 -148 37 -116 108 -403 142 -569 9 -46 15 -58 30 -58 15 0 78 23
99 37 2 1 -27 124 -64 272 -37 149 -65 277 -62 285 3 8 39 37 80 65 108 73
137 104 137 151 0 41 -11 50 -61 50 -23 0 -47 -17 -108 -76z"/>
<path d="M9044 19643 c-23 -101 -50 -200 -88 -325 -25 -79 -52 -172 -61 -208
-19 -73 -45 -223 -40 -229 8 -8 77 43 99 72 62 83 85 152 135 404 26 131 41
184 75 265 6 12 0 18 -23 23 -17 4 -33 11 -36 16 -4 5 -17 9 -30 9 -19 0 -26
-7 -31 -27z"/>
<path d="M9574 19653 c-22 -74 -68 -109 -159 -118 -63 -7 -65 -8 -65 -36 0
-23 7 -32 40 -49 53 -27 58 -43 25 -81 -79 -94 -145 -299 -145 -448 0 -107 12
-152 51 -191 26 -26 38 -30 84 -30 68 0 108 14 103 37 -2 10 -30 31 -62 48
-81 42 -91 59 -76 132 30 140 91 287 170 403 l40 59 59 -41 c45 -31 72 -42
110 -46 61 -5 73 11 48 63 -12 26 -28 38 -74 55 -114 42 -121 56 -78 162 14
34 24 62 22 63 -1 1 -13 9 -27 18 -32 22 -59 22 -66 0z"/>
<path d="M2876 19514 c-22 -57 1 -169 71 -343 25 -64 52 -140 60 -168 l14 -53
-53 -66 c-55 -71 -107 -103 -165 -104 -25 0 -39 9 -67 42 -43 49 -63 101 -106
268 -39 152 -72 221 -124 266 -51 44 -66 44 -66 -1 0 -110 81 -370 175 -561
71 -145 70 -144 165 -144 67 0 123 24 182 78 83 75 130 90 174 57 32 -24 36
-18 29 43 -32 270 -144 595 -232 672 -38 34 -48 37 -57 14z"/>
<path d="M9967 19363 c-3 -5 -8 -46 -11 -93 -40 -488 -134 -763 -307 -900
l-51 -40 36 0 c76 0 176 56 306 174 47 42 169 148 271 235 198 170 244 216
290 296 39 68 39 86 -3 79 -73 -14 -123 -51 -272 -199 -140 -140 -223 -201
-243 -182 -3 4 11 91 32 194 62 310 58 443 -14 443 -16 0 -32 -3 -34 -7z"/>
<path d="M1964 19180 c-53 -17 -126 -72 -161 -123 -43 -64 -57 -115 -57 -213
-1 -73 3 -88 36 -156 69 -138 206 -242 355 -270 110 -20 214 18 263 97 12 20
20 38 18 41 -3 2 -39 -1 -79 -7 -201 -31 -378 11 -424 101 -33 66 -35 64 87
116 62 26 163 64 224 83 l112 36 -17 55 c-33 106 -82 172 -158 217 -49 28
-145 39 -199 23z m166 -115 c30 -16 52 -49 64 -97 7 -32 -7 -42 -119 -78 -79
-26 -141 -55 -168 -79 -17 -15 -20 -14 -33 4 -25 34 -36 91 -25 133 12 43 60
94 111 116 45 20 133 20 170 1z"/>
<path d="M1133 18989 c5 -98 43 -178 167 -354 96 -135 160 -253 160 -293 0
-32 -6 -30 -275 108 -280 144 -396 194 -521 226 -53 13 -100 24 -105 24 -15 0
-10 -36 17 -122 71 -226 212 -467 419 -715 43 -51 81 -93 86 -93 12 0 0 85
-23 155 -26 80 -66 151 -193 339 -105 156 -159 250 -153 266 4 13 154 -53 373
-162 214 -107 369 -176 465 -206 96 -30 120 -34 120 -21 0 25 -70 219 -108
299 -83 174 -268 450 -386 575 l-47 50 4 -76z"/>
<path d="M11274 18961 c-72 -33 -134 -140 -156 -268 l-12 -72 -55 -6 c-125
-15 -191 -45 -255 -116 -63 -69 -80 -119 -81 -229 0 -86 3 -101 32 -162 36
-76 93 -136 161 -169 39 -19 63 -23 142 -24 52 0 114 4 137 9 l41 8 11 -53 c6
-30 13 -80 17 -113 10 -95 69 -136 113 -80 27 34 26 62 -4 165 -13 46 -25 99
-25 116 0 40 24 54 155 93 169 51 205 75 205 135 l0 35 -52 0 c-41 0 -74 -10
-162 -52 -61 -28 -127 -52 -146 -52 -34 -1 -35 1 -47 49 -8 28 -12 79 -11 115
l3 65 65 6 c78 8 142 25 191 50 50 25 117 104 125 145 12 65 0 157 -29 216
-32 66 -112 150 -169 179 -59 30 -143 35 -194 10z m222 -110 c23 -10 49 -29
58 -42 20 -30 22 -146 2 -193 -36 -87 -144 -159 -257 -172 l-56 -6 -16 41
c-56 138 -12 306 97 372 40 25 118 24 172 0z m-386 -353 c11 -18 27 -56 36
-84 15 -53 55 -354 48 -365 -8 -13 -95 -29 -157 -29 -85 0 -141 29 -182 95
-27 44 -30 56 -30 134 0 77 3 92 30 140 34 61 82 105 140 125 67 24 93 20 115
-16z"/>
<path d="M4015 18511 c-14 -45 -22 -230 -14 -350 12 -206 49 -405 110 -591 32
-96 74 -190 86 -190 10 0 -5 338 -21 465 -29 222 -122 653 -146 679 -4 4 -11
-1 -15 -13z"/>
<path d="M6138 18442 c3 -58 -4 -148 -18 -257 -28 -210 -25 -319 10 -391 14
-27 29 -49 35 -49 18 0 46 99 56 204 6 59 7 166 4 241 l-7 136 89 42 c75 36
98 42 151 42 62 0 63 -1 77 -33 24 -57 27 -146 11 -290 -21 -186 -21 -283 2
-326 21 -44 37 -49 56 -19 32 50 47 141 52 323 7 267 5 259 64 284 55 24 153
40 199 33 68 -10 87 -125 55 -339 -22 -145 -16 -266 15 -316 12 -20 27 -37 32
-37 23 0 54 146 70 325 19 209 -14 409 -77 472 -19 19 -33 23 -86 23 -62 -1
-104 -12 -222 -63 l-60 -26 -17 38 c-21 47 -68 71 -141 71 -61 0 -147 -22
-195 -51 l-33 -18 0 22 c0 35 -19 47 -75 47 l-51 0 4 -88z"/>
<path d="M5380 18495 c-8 -2 -36 -7 -62 -10 l-48 -6 0 -92 c0 -117 16 -360 39
-592 11 -108 16 -226 13 -295 -4 -106 -2 -117 18 -142 29 -38 82 -39 98 -3 16
35 15 99 -3 165 -8 30 -15 73 -15 96 l0 41 68 6 c99 8 173 40 240 102 121 112
169 278 126 440 -34 131 -120 225 -249 269 -47 16 -192 30 -225 21z m217 -142
c139 -65 198 -248 129 -398 -15 -33 -39 -73 -54 -88 -42 -45 -119 -79 -188
-85 l-60 -4 -17 163 c-29 275 -20 421 27 439 32 13 105 1 163 -27z"/>
<path d="M4671 18405 c-70 -20 -111 -46 -160 -102 -59 -66 -83 -138 -89 -259
-2 -56 1 -125 7 -155 28 -135 121 -260 216 -292 118 -41 242 -12 322 75 53 58
70 91 94 185 42 168 8 360 -85 470 -63 75 -194 109 -305 78z m169 -105 c169
-86 184 -478 22 -581 -39 -24 -56 -29 -112 -29 -55 0 -73 5 -111 28 -144 92
-158 416 -22 544 61 59 153 74 223 38z"/>
<path d="M7590 18399 c-111 -13 -215 -90 -271 -201 -86 -171 -73 -383 32 -502
56 -63 169 -119 255 -124 60 -4 65 -3 95 27 18 18 28 36 23 40 -5 5 -32 16
-60 25 -76 25 -163 79 -216 136 -60 64 -74 120 -50 195 l17 50 42 -3 c24 -2
104 -21 179 -43 89 -25 157 -39 195 -39 l58 0 7 46 c20 138 -43 320 -130 373
-37 22 -100 29 -176 20z m83 -110 c76 -21 144 -113 135 -185 -3 -27 -6 -29
-54 -32 -33 -2 -93 8 -169 28 -64 16 -130 30 -146 30 -35 0 -37 15 -9 70 41
81 141 118 243 89z"/>
<path d="M8187 18243 c-2 -5 -7 -21 -11 -38 -4 -16 -39 -110 -77 -208 -82
-208 -109 -307 -108 -391 0 -65 17 -127 35 -133 28 -9 78 109 134 314 22 81
52 173 66 204 l26 57 85 12 c109 16 150 9 186 -30 50 -56 37 -142 -54 -372
-63 -159 -74 -241 -40 -295 12 -18 27 -33 35 -33 8 0 33 48 64 123 94 228 128
358 139 537 l6 96 -32 27 c-18 14 -55 33 -83 42 -56 16 -172 20 -230 6 -34 -8
-36 -7 -42 20 -8 39 -85 87 -99 62z"/>
<path d="M9040 18068 c-21 -57 -56 -81 -130 -86 l-61 -4 3 -32 c2 -25 11 -35
46 -55 55 -30 54 -32 -28 -210 -73 -157 -100 -256 -100 -362 l0 -77 52 -47
c100 -90 167 -107 212 -54 36 42 33 53 -17 66 -55 15 -91 44 -123 99 -26 44
-26 45 -9 87 9 23 35 93 57 156 40 116 82 207 116 250 l19 24 59 -29 c43 -21
74 -29 114 -29 50 0 55 2 58 23 5 36 -44 76 -124 100 -83 25 -105 44 -81 70
17 20 37 85 37 125 0 25 -3 27 -43 27 -41 0 -43 -2 -57 -42z"/>
<path d="M3395 18089 c-152 -56 -204 -281 -120 -521 104 -301 333 -386 529
-196 70 68 72 82 9 62 -27 -8 -84 -17 -128 -21 -102 -7 -174 12 -233 63 -49
42 -69 76 -81 138 l-8 45 71 11 c130 21 240 52 324 91 l83 38 -24 33 c-14 18
-43 67 -65 108 -72 131 -103 152 -237 157 -49 1 -103 -2 -120 -8z m225 -130
c21 -12 48 -39 60 -61 l22 -39 -22 -24 c-29 -30 -57 -41 -160 -60 -47 -8 -103
-24 -125 -35 -51 -26 -60 -16 -60 68 0 53 5 73 22 98 51 71 183 98 263 53z"/>
<path d="M9886 17871 c-47 -91 -137 -243 -259 -436 -124 -195 -250 -406 -245
-409 2 -2 28 -17 58 -36 30 -18 95 -62 145 -98 118 -85 196 -122 258 -122 52
0 58 10 33 58 -24 45 -66 78 -172 130 -106 53 -164 95 -164 118 0 7 54 91 120
185 133 190 212 313 260 410 36 70 80 182 80 202 0 7 -17 19 -37 27 -21 8 -41
16 -45 18 -4 2 -18 -19 -32 -47z"/>
<path d="M2934 17823 c-8 -40 1 -249 17 -444 6 -69 9 -135 7 -148 -3 -21 -6
-20 -52 26 -27 26 -88 100 -136 163 -132 174 -223 249 -304 250 -37 0 -34 -5
61 -142 195 -278 369 -441 504 -473 l27 -7 -6 67 c-2 36 1 162 7 278 14 234 6
345 -28 423 -18 40 -23 44 -55 44 -32 0 -36 -3 -42 -37z"/>
<path d="M2029 17506 c-58 -21 -96 -53 -121 -104 -20 -41 -23 -61 -22 -162 0
-104 3 -123 32 -198 56 -149 147 -263 251 -314 71 -35 169 -32 239 7 51 28
149 123 173 167 11 20 9 21 -22 15 -19 -3 -90 -16 -159 -27 -129 -23 -227 -23
-272 1 -40 20 -77 61 -89 97 -11 32 -9 36 17 58 56 47 162 105 275 150 63 25
116 47 117 49 2 2 -16 41 -39 87 -58 110 -110 162 -178 177 -68 14 -157 13
-202 -3z m209 -123 c30 -23 58 -60 66 -88 5 -18 -11 -29 -127 -88 -72 -36
-151 -69 -174 -73 l-43 -6 0 65 c0 77 11 111 48 151 61 65 170 84 230 39z"/>
<path d="M10350 17318 c0 -34 22 -61 101 -124 65 -51 109 -112 109 -148 0 -9
-7 -33 -15 -54 l-16 -39 -72 38 c-183 95 -342 65 -422 -81 -27 -49 -30 -64
-30 -140 0 -73 4 -92 27 -136 47 -89 146 -151 257 -161 l57 -5 53 53 c226 230
313 612 169 746 -33 31 -103 60 -165 68 -51 7 -53 6 -53 -17z m34 -379 c30
-11 64 -28 75 -37 20 -17 20 -18 3 -68 -10 -28 -41 -82 -69 -120 -28 -38 -58
-84 -67 -101 -20 -41 -50 -43 -121 -9 -58 27 -78 47 -100 99 -19 46 -19 88 0
135 45 107 156 148 279 101z"/>
<path d="M11073 17148 c-33 -57 -136 -204 -228 -328 -185 -247 -251 -345 -315
-465 l-42 -80 42 -38 c97 -86 246 -130 363 -109 144 27 266 121 333 257 32 65
38 88 42 159 3 58 -1 100 -12 138 -19 68 -87 163 -144 202 -23 16 -42 34 -42
40 0 7 23 39 51 71 58 67 109 143 109 161 0 16 -70 94 -85 94 -6 0 -39 -46
-72 -102z m-25 -380 c144 -99 148 -323 7 -463 -25 -26 -67 -56 -93 -67 -89
-40 -228 -22 -300 40 l-32 27 39 71 c22 38 88 135 146 215 59 79 117 161 129
181 24 43 35 43 104 -4z"/>
<path d="M1225 17144 c-116 -25 -229 -86 -312 -169 -90 -90 -96 -110 -52 -167
19 -24 135 -171 259 -328 124 -157 245 -311 269 -342 50 -67 63 -70 140 -32
315 157 406 697 158 931 -65 62 -119 90 -206 109 -83 17 -166 17 -256 -2z
m208 -147 c34 -15 85 -52 121 -87 165 -158 203 -383 93 -546 -30 -45 -127
-134 -146 -134 -13 0 -134 144 -282 335 -73 94 -157 198 -187 233 l-55 63 29
30 c50 53 103 91 162 116 77 32 181 28 265 -10z"/>
<path d="M5435 16629 c-175 -23 -412 -88 -710 -195 -99 -36 -265 -96 -370
-133 -345 -123 -566 -237 -935 -482 -349 -232 -671 -482 -1180 -917 -383 -327
-773 -741 -868 -920 -98 -184 -153 -635 -153 -1262 0 -685 36 -890 225 -1265
102 -202 197 -350 287 -449 105 -115 203 -181 604 -408 83 -46 332 -202 555
-345 550 -352 741 -466 1081 -641 97 -50 250 -136 340 -190 344 -208 496 -259
698 -233 115 15 181 37 387 132 95 43 210 90 257 103 98 28 207 44 207 29 0
-6 9 -52 20 -104 11 -52 27 -161 36 -244 21 -191 14 -603 -15 -1025 -15 -210
-21 -378 -20 -585 2 -310 -4 -377 -47 -505 -200 -597 -920 -1108 -1665 -1181
-156 -15 -276 -2 -614 66 -277 55 -487 81 -558 70 l-39 -7 6 -47 c12 -89 64
-130 204 -162 104 -23 170 -50 196 -78 15 -17 12 -21 -53 -64 -181 -120 -391
-197 -851 -312 -211 -52 -223 -56 -217 -62 14 -14 239 -44 372 -49 315 -14
531 24 1140 197 504 144 758 180 1041 148 149 -16 145 -12 79 -99 -341 -446
-928 -684 -1880 -762 -79 -6 -142 -15 -139 -19 9 -15 122 -52 304 -99 174 -45
272 -80 312 -111 17 -13 15 -24 -26 -174 -71 -259 -80 -315 -81 -465 0 -139 7
-174 47 -232 11 -16 23 -28 27 -28 4 0 13 33 20 73 16 91 80 285 121 368 115
228 317 442 531 562 98 54 228 105 341 132 57 14 106 25 111 25 4 0 -8 -30
-27 -68 -66 -131 -129 -359 -157 -572 -19 -139 -16 -471 5 -595 45 -266 128
-449 262 -576 54 -51 128 -99 153 -99 5 0 -6 38 -25 85 -247 614 -158 1448
201 1877 52 63 203 188 227 188 6 0 8 -13 4 -33 -55 -297 -21 -672 93 -1015
79 -239 250 -611 259 -567 11 52 -8 430 -34 645 -35 305 -41 701 -11 840 22
103 59 197 103 268 37 58 114 136 155 158 l26 13 7 -82 c20 -224 81 -478 217
-897 186 -575 225 -711 266 -930 26 -138 23 -418 -5 -605 -12 -77 -31 -201
-42 -275 -26 -172 -38 -370 -22 -370 6 0 29 26 50 58 157 231 234 583 236
1084 1 235 1 237 21 223 11 -8 72 -47 135 -86 251 -158 321 -212 398 -303 88
-104 118 -188 153 -426 32 -220 70 -341 132 -425 15 -19 16 -19 23 9 14 57
-20 764 -39 804 -15 32 -204 281 -380 502 -250 314 -380 509 -481 721 -141
298 -202 619 -178 937 10 123 39 331 48 341 6 6 173 -87 241 -136 83 -59 208
-176 279 -262 l53 -64 -18 -36 c-55 -108 -90 -260 -98 -413 -11 -243 47 -386
192 -469 72 -41 80 -37 46 24 -61 108 -75 220 -42 349 31 121 111 257 200 342
30 29 33 29 69 17 112 -40 239 -150 318 -277 87 -139 115 -217 268 -734 60
-205 91 -284 106 -275 16 10 40 105 40 159 0 28 -7 106 -16 174 -15 116 -13
212 5 212 4 0 36 -24 72 -54 73 -59 126 -124 249 -301 82 -117 225 -275 250
-275 27 0 -26 213 -84 336 -54 114 -96 176 -246 364 -161 201 -206 272 -320
506 -54 111 -112 223 -130 250 -88 127 -205 234 -487 446 -231 172 -371 298
-438 393 -44 63 -79 124 -73 130 2 2 141 -41 308 -96 236 -77 353 -110 520
-144 251 -52 318 -73 398 -124 69 -45 122 -106 231 -268 119 -176 183 -227
302 -240 l62 -6 -7 53 c-10 76 -25 105 -99 194 -67 80 -97 143 -97 202 0 31 0
32 87 53 48 12 187 42 308 66 121 24 261 55 310 70 96 27 256 102 263 122 2 7
-26 18 -75 29 -115 27 -327 23 -573 -11 -256 -35 -492 -43 -618 -21 -111 19
-142 34 -287 136 -164 115 -257 164 -595 315 -181 81 -431 211 -528 275 -125
83 -229 187 -271 270 -84 171 -92 427 -27 805 37 211 57 379 63 508 4 97 10
137 18 137 40 0 194 -34 257 -56 40 -15 159 -69 263 -122 304 -152 372 -168
669 -159 200 6 312 25 463 78 193 68 312 130 653 339 124 76 453 269 732 429
524 300 973 563 1183 693 l120 74 56 159 c31 88 100 265 153 394 135 321 178
439 237 636 28 94 75 249 105 345 143 453 192 672 201 890 9 227 -16 321 -170
640 -128 267 -218 493 -563 1415 -275 735 -281 748 -342 869 -71 141 -129 200
-367 375 -152 112 -210 164 -370 326 -104 106 -210 208 -235 228 -107 84 -331
170 -700 267 -107 28 -283 76 -390 105 -902 248 -1721 404 -2423 460 -204 16
-450 18 -562 4z m720 -428 c299 -38 528 -82 1155 -221 195 -43 513 -108 705
-145 814 -155 1039 -228 1320 -428 290 -207 585 -474 747 -677 90 -113 159
-283 297 -730 154 -501 172 -548 406 -1035 89 -187 183 -392 208 -455 92 -231
124 -423 114 -683 -11 -294 -54 -460 -262 -1005 -51 -136 -130 -368 -175 -516
-127 -417 -188 -556 -289 -656 -73 -72 -168 -125 -792 -438 -283 -142 -642
-332 -799 -422 -345 -197 -503 -281 -675 -355 -137 -60 -439 -165 -474 -165
-30 0 -295 84 -412 130 -402 161 -603 369 -658 684 -23 125 -3 405 34 494 9
20 137 156 320 339 l306 306 62 -7 c284 -30 508 -32 692 -6 264 37 492 136
625 270 60 59 100 116 77 107 -168 -64 -374 -120 -529 -143 -144 -21 -338 -15
-451 15 -117 31 -114 25 -71 112 54 108 168 217 365 350 l156 106 264 -5 c721
-12 1167 92 1429 334 53 49 130 142 130 157 0 7 -103 -18 -170 -41 -30 -11
-122 -46 -205 -79 -289 -117 -431 -150 -594 -141 -92 6 -211 34 -211 51 0 19
139 145 318 288 365 293 503 472 536 693 l8 49 -50 -6 c-105 -12 -175 -68
-311 -246 -84 -111 -170 -201 -190 -201 -14 0 -42 104 -51 194 -16 157 7 300
103 651 66 242 89 372 85 484 l-3 85 -38 -33 c-57 -50 -132 -173 -177 -288
-42 -108 -101 -324 -195 -723 -66 -277 -109 -410 -171 -531 -43 -84 -48 -89
-87 -99 -153 -39 -376 -133 -547 -231 -171 -98 -294 -183 -592 -407 -249 -188
-479 -352 -492 -352 -12 0 -6 133 10 203 8 40 37 117 64 172 82 168 190 286
490 535 197 163 373 345 463 480 148 224 257 499 351 885 146 606 180 737 229
886 30 90 64 188 75 217 12 28 18 52 14 52 -20 0 -102 -62 -145 -110 -104
-116 -156 -248 -241 -608 -60 -252 -99 -380 -145 -469 l-29 -58 -52 53 c-91
94 -141 235 -160 454 -7 78 -9 262 -5 498 3 206 2 397 -2 425 l-8 50 -41 -42
c-128 -132 -176 -365 -154 -755 15 -273 31 -357 139 -708 99 -325 93 -449 -31
-600 -64 -78 -150 -146 -397 -310 -173 -115 -233 -162 -316 -244 -125 -125
-244 -283 -400 -533 -66 -106 -124 -191 -129 -190 -14 4 -46 93 -77 215 -98
384 -37 867 160 1275 32 67 123 228 201 357 266 439 311 523 367 689 45 131
55 267 29 371 -18 68 -54 137 -65 123 -4 -4 -25 -53 -46 -108 -82 -214 -180
-386 -428 -756 -170 -253 -258 -392 -302 -479 -29 -57 -51 -63 -120 -31 -39
17 -59 37 -155 152 l-45 54 1 135 c1 114 7 163 38 314 40 195 58 321 49 354
-5 20 -7 20 -33 7 -116 -60 -220 -336 -261 -688 -23 -201 8 -319 150 -565 114
-196 125 -234 125 -407 -1 -157 -8 -194 -84 -461 -62 -217 -80 -314 -82 -432
-1 -59 -5 -92 -12 -92 -23 0 -145 102 -241 201 -55 57 -159 178 -230 269 -70
91 -150 190 -176 220 l-47 56 -13 119 c-16 152 -16 559 0 690 51 419 144 721
379 1235 172 377 232 512 232 521 0 20 -86 -36 -135 -86 -27 -29 -86 -111
-130 -182 -82 -132 -153 -218 -211 -254 l-34 -20 -60 32 c-115 61 -197 185
-242 364 -28 116 -31 349 -5 465 22 96 22 93 -13 75 -41 -21 -76 -77 -104
-165 -38 -120 -49 -246 -43 -478 8 -298 26 -361 152 -532 34 -47 65 -90 68
-96 3 -6 -5 -44 -18 -85 -37 -117 -72 -297 -105 -540 -42 -317 -57 -407 -92
-552 l-30 -127 -41 22 c-66 36 -257 232 -320 328 -178 272 -288 610 -338 1035
-16 135 -16 515 0 648 7 60 10 111 7 114 -9 9 -53 -35 -87 -89 -42 -66 -75
-168 -94 -291 -11 -79 -15 -189 -15 -446 0 -396 12 -366 -120 -300 -139 70
-293 238 -386 421 -13 26 -29 48 -35 48 -5 0 -21 -24 -34 -52 -52 -111 -20
-226 101 -374 33 -39 86 -105 118 -145 115 -142 213 -256 451 -524 488 -548
634 -730 815 -1018 58 -93 170 -297 170 -310 0 -11 -44 -8 -157 9 -266 39
-481 141 -695 327 -95 82 -215 224 -408 477 -98 129 -194 253 -213 275 l-35
40 -16 -54 c-33 -111 -14 -237 55 -358 16 -28 77 -116 135 -195 108 -145 164
-244 164 -287 0 -24 0 -24 -88 -18 -110 7 -196 29 -281 72 -93 46 -166 103
-323 253 -76 72 -158 145 -183 162 -42 29 -157 90 -169 90 -12 0 -5 -61 13
-119 41 -131 140 -237 353 -377 73 -48 169 -111 213 -140 44 -29 105 -75 136
-103 31 -28 69 -55 84 -61 38 -15 139 -12 262 6 138 21 256 15 315 -16 24 -12
77 -52 118 -89 209 -187 297 -229 685 -330 416 -108 497 -142 611 -255 73 -74
106 -129 130 -219 18 -67 29 -214 20 -262 -7 -35 -12 -39 -99 -80 -409 -194
-864 -208 -1345 -40 -337 117 -679 323 -1212 729 -113 86 -311 234 -440 329
-469 343 -653 504 -802 702 -61 81 -99 148 -125 219 -27 78 -44 305 -50 656
-9 550 25 951 107 1267 73 283 154 373 696 778 149 111 353 272 454 356 100
85 248 209 329 277 287 241 525 406 761 526 147 76 229 109 442 182 86 29 259
93 385 143 334 131 478 175 653 200 41 6 86 13 100 15 58 10 397 -4 545 -23z"/>
<path d="M10910 6174 c-76 -21 -128 -54 -192 -122 -65 -71 -108 -155 -184
-362 -31 -85 -76 -194 -100 -241 -55 -107 -93 -137 -318 -251 -155 -78 -267
-145 -282 -169 -12 -20 27 -39 78 -39 30 0 79 12 126 29 140 54 157 52 141
-18 -13 -59 -47 -120 -123 -226 -70 -96 -96 -155 -96 -217 0 -33 3 -38 23 -38
34 0 132 52 199 104 31 25 118 115 193 201 214 244 284 290 442 290 55 0 97
-5 103 -11 13 -13 5 -32 -72 -174 -61 -113 -81 -184 -81 -294 l0 -90 34 -28
c47 -40 128 -62 204 -56 161 13 289 131 302 279 6 57 5 59 -18 59 -39 0 -85
-35 -127 -98 -72 -106 -131 -142 -208 -128 -77 15 -83 110 -15 235 90 165 113
219 118 280 8 82 -12 149 -46 163 -37 14 -197 3 -315 -21 -105 -22 -171 -27
-180 -12 -13 20 81 134 229 281 170 169 209 216 255 308 42 84 60 170 60 285
l0 97 -47 -1 c-27 0 -73 -7 -103 -15z"/>
<path d="M1068 5706 c-85 -31 -128 -82 -128 -151 0 -61 27 -104 87 -138 103
-57 221 -46 292 27 33 34 33 36 29 109 -4 85 -16 105 -83 139 -50 26 -147 33
-197 14z"/>
<path d="M1957 5093 c-4 -3 -325 -10 -715 -14 -716 -8 -889 -16 -952 -47 -30
-15 -35 -22 -35 -52 0 -32 4 -37 45 -57 65 -32 222 -52 510 -64 368 -15 1046
10 1148 42 20 7 41 24 53 43 22 36 26 118 7 134 -19 14 -53 23 -61 15z"/>
<path d="M1035 4576 c-28 -13 -64 -38 -79 -57 -26 -30 -28 -39 -23 -87 7 -67
31 -109 86 -147 40 -28 49 -30 129 -30 107 0 141 19 166 92 33 97 14 196 -46
233 -49 30 -166 28 -233 -4z"/>
<path d="M9622 3999 c-253 -33 -468 -149 -569 -307 -41 -63 -38 -78 28 -172
140 -200 460 -330 814 -330 281 0 496 72 632 212 60 62 113 143 113 172 0 39
-58 122 -134 194 -193 180 -554 274 -884 231z m-38 -161 c-34 -108 -46 -176
-51 -299 l-5 -136 -45 8 c-102 19 -199 89 -263 188 -37 58 -37 67 -2 107 59
69 158 119 283 143 79 16 91 14 83 -11z m323 -39 c67 -25 133 -119 133 -188 0
-65 -41 -146 -102 -203 -56 -53 -62 -55 -136 -33 -60 18 -119 66 -138 112 -31
72 -7 174 56 246 62 70 122 91 187 66z m357 -46 c71 -36 166 -129 166 -163 0
-55 -73 -141 -165 -196 -44 -25 -147 -65 -153 -59 -2 2 3 14 11 27 43 66 69
234 58 360 -7 78 -9 77 83 31z"/>
<path d="M2037 3944 c-118 -28 -237 -103 -297 -186 -28 -38 -30 -47 -30 -133
0 -130 22 -169 160 -290 58 -50 106 -98 108 -107 2 -8 -15 -27 -38 -43 -67
-46 -174 -168 -212 -242 -87 -165 -90 -305 -11 -425 32 -47 67 -58 189 -58
154 0 274 50 385 161 161 160 193 383 84 587 l-34 64 40 51 c85 107 119 206
119 347 0 91 -2 100 -28 136 -90 124 -264 180 -435 138z m165 -156 c52 -15
121 -77 147 -132 39 -79 6 -169 -77 -214 -112 -62 -310 -39 -388 45 -18 20
-24 37 -24 72 0 52 12 74 79 145 79 83 169 112 263 84z m39 -684 c66 -33 86
-176 37 -269 -34 -65 -114 -139 -186 -173 -48 -22 -71 -27 -142 -26 -110 0
-130 10 -130 68 0 122 45 232 129 316 99 99 204 129 292 84z"/>
<path d="M8350 2842 c-102 -35 -108 -40 -119 -96 -20 -95 -30 -230 -41 -511
-12 -308 -23 -432 -38 -447 -6 -6 -101 -32 -211 -59 -283 -68 -378 -117 -416
-211 -21 -54 -14 -107 27 -188 85 -170 296 -197 553 -71 96 48 197 120 219
158 7 12 13 183 17 488 6 484 11 551 55 703 17 61 10 60 130 11 208 -86 365
-250 404 -424 6 -28 13 -124 14 -215 5 -230 29 -305 79 -238 39 52 57 94 73
166 68 324 -135 762 -420 903 -78 38 -93 42 -178 45 -72 3 -105 0 -148 -14z"/>
<path d="M3747 2786 c-101 -36 -157 -124 -165 -257 -3 -60 0 -89 17 -138 20
-58 20 -63 5 -94 -58 -114 -135 -154 -210 -108 -18 11 -60 56 -93 100 -68 90
-84 101 -135 101 -30 0 -37 -4 -42 -25 -16 -65 33 -174 133 -291 l64 -75 -11
-51 c-29 -136 -112 -243 -320 -412 -131 -108 -170 -153 -170 -200 0 -53 15
-66 76 -66 71 0 97 14 208 114 114 102 134 116 168 116 24 0 28 -4 28 -30 0
-17 -16 -92 -36 -168 -41 -158 -43 -237 -7 -274 46 -46 83 7 194 278 97 238
148 333 223 413 86 91 172 118 277 88 l55 -16 21 -73 c18 -60 36 -90 98 -168
l76 -95 -95 -90 c-52 -50 -133 -115 -180 -145 -47 -30 -84 -59 -83 -65 2 -5
33 -26 70 -45 99 -51 100 -71 9 -204 -75 -110 -92 -150 -92 -218 0 -57 1 -58
28 -58 65 0 114 52 200 216 32 59 69 116 84 127 26 20 27 20 60 0 48 -28 48
-66 -2 -209 -50 -145 -60 -213 -36 -249 24 -37 63 -31 93 14 13 19 38 80 55
135 41 134 81 212 121 237 31 19 56 20 115 3 19 -6 22 -3 22 25 0 18 -13 86
-30 151 -29 115 -36 181 -24 227 l6 22 37 -19 c21 -10 73 -48 117 -83 43 -35
89 -70 102 -76 35 -19 52 1 52 62 0 49 -2 52 -68 116 -38 36 -96 91 -130 121
-54 48 -62 60 -62 90 0 58 38 121 95 157 109 69 123 81 150 137 33 67 43 168
25 236 -35 130 -219 193 -347 120 -42 -24 -57 -40 -79 -87 -27 -55 -29 -66
-34 -233 -5 -188 -14 -220 -61 -235 -45 -15 -102 71 -124 188 -8 41 -20 76
-30 83 -9 7 -66 24 -128 40 -180 44 -236 77 -256 151 -22 80 11 123 131 173
131 54 183 135 183 285 -1 83 -25 137 -82 184 -69 57 -181 77 -266 47z"/>
<path d="M6009 1654 c-79 -89 -142 -401 -169 -824 -11 -183 -12 -451 -2 -520
7 -44 8 -45 47 -48 33 -2 45 2 65 23 24 26 25 31 31 233 3 114 9 214 13 224
11 24 195 55 437 73 l85 6 38 -41 c20 -23 66 -85 100 -139 104 -160 147 -197
197 -170 19 10 21 18 17 74 -7 106 -127 324 -434 787 -143 214 -258 319 -365
334 -35 5 -47 2 -60 -12z m132 -235 c65 -33 125 -113 207 -276 67 -135 74
-155 61 -168 -35 -35 -273 -74 -365 -60 l-47 7 6 151 c7 162 17 237 42 324 18
60 20 61 96 22z"/>
</g>
</svg>
